<svg width="883" height="967" viewBox="0 0 883 967" fill="none" xmlns="http://www.w3.org/2000/svg">
<g clip-path="url(#clip0_3419_34229)">
<path d="M112.204 804.889C100.718 804.889 90.6311 807.271 81.9365 812.023C73.2411 816.784 66.5167 823.464 61.7603 832.073C57.0005 840.679 54.6243 850.565 54.6243 861.712C54.6243 872.87 56.9626 882.747 61.637 891.358C66.3136 899.965 72.9949 906.651 81.6917 911.406C90.3851 916.163 100.553 918.537 112.204 918.537C124.341 918.537 133.98 917.396 141.118 915.092C148.251 912.798 153.791 910.176 157.721 907.223V960.109C153.299 962.08 146.775 963.718 138.162 965.033C129.552 966.343 120.897 967 112.204 967C88.743 967 68.5665 962.408 51.6731 953.225C34.7761 944.04 21.9372 931.494 13.1638 915.586C4.38615 899.684 0 881.725 0 861.712C0 842.036 4.63227 824.199 13.9022 808.213C23.1679 792.221 36.3318 779.634 53.3937 770.453C70.4548 761.27 90.0568 756.677 112.204 756.677C133.035 756.677 148.209 759.219 157.721 764.3V817.187C147.884 808.993 132.707 804.889 112.204 804.889Z" fill="#44B7EA"/>
<path d="M239.377 963.309H186.967V808.762H239.377V963.309Z" fill="#44B7EA"/>
<path d="M332.229 963.309H279.82V760.366H335.184L405.064 879.917H405.556V760.366H457.968V963.309H402.605L332.724 843.02H332.229V963.309Z" fill="#44B7EA"/>
<path d="M603.914 963.309L545.845 876.226V963.309H493.431V760.366H545.845V840.314L598.992 760.366H658.048L591.362 857.532L666.413 963.309H603.914Z" fill="#44B7EA"/>
<path d="M733.276 889.881C737.457 898.49 743.443 905.339 751.237 910.422C759.03 915.506 767.849 918.045 777.69 918.045C787.531 918.045 796.303 915.506 804.016 910.422C811.726 905.339 817.712 898.49 821.979 889.881C826.244 881.268 828.377 871.885 828.377 861.712C828.377 851.548 826.244 842.158 821.979 833.548C817.712 824.936 811.726 818.135 804.016 813.128C796.303 808.13 787.531 805.628 777.69 805.628C767.849 805.628 759.03 808.13 751.237 813.128C743.443 818.135 737.457 824.936 733.276 833.548C729.092 842.158 727.002 851.548 727.002 861.712C727.002 871.885 729.092 881.268 733.276 889.881ZM686.278 808.58C695.544 792.509 708.177 779.838 724.17 770.572C740.165 761.311 758.002 756.677 777.69 756.677C797.375 756.677 815.253 761.311 831.329 770.572C847.404 779.838 860.034 792.509 869.22 808.58C878.407 824.652 883 842.365 883 861.712C883 881.233 878.534 898.981 869.594 914.973C860.648 930.961 848.184 943.629 832.194 952.978C816.198 962.325 798.027 967 777.69 967C757.023 967 738.687 962.367 722.694 953.1C706.704 943.836 694.312 931.171 685.54 915.092C676.763 899.023 672.377 881.233 672.377 861.712C672.377 842.365 677.009 824.652 686.278 808.58Z" fill="#44B7EA"/>
<path d="M237.825 748.43C235.973 749.113 233.894 749.685 231.697 750.199H231.696C230.186 750.55 228.652 750.89 226.981 751.163C222.877 751.832 218.558 752.165 214.025 752.165C209.369 752.165 204.988 751.832 200.884 751.163C198.984 750.853 197.213 750.477 195.524 750.066C195.523 750.066 195.523 750.066 195.523 750.066C193.562 749.585 191.717 749.05 190.04 748.43C188.478 747.856 187.084 747.229 185.859 746.554C184.892 746.024 184.116 745.438 183.359 744.845V752.066C183.359 753.817 184.161 755.464 185.763 757.009C187.366 758.553 189.576 759.901 192.393 761.054C195.211 762.207 198.471 763.118 202.173 763.786C205.874 764.454 209.825 764.789 214.025 764.789C218.113 764.789 222.008 764.454 225.711 763.786C229.412 763.118 232.673 762.207 235.49 761.054C238.308 759.901 240.546 758.553 242.203 757.009C243.861 755.464 244.69 753.817 244.69 752.066V744.772C243.894 745.394 243.048 746.002 242.029 746.554C240.789 747.229 239.387 747.856 237.825 748.43Z" fill="#73C9EF"/>
<path d="M186.224 730.839C186.269 730.884 186.301 730.933 186.349 730.977C187.15 731.751 188.103 732.474 189.208 733.149C190.313 733.823 191.57 734.447 192.979 735.022C194.492 735.641 196.156 736.18 197.924 736.657C199.448 737.072 201.045 737.445 202.759 737.755C206.461 738.423 210.411 738.758 214.611 738.758C218.699 738.758 222.595 738.423 226.296 737.755C227.803 737.481 229.187 737.144 230.548 736.79H230.549C232.53 736.276 234.406 735.708 236.076 735.022C237.485 734.447 238.749 733.823 239.867 733.149C240.85 732.557 241.673 731.911 242.431 731.245C242.537 731.151 242.688 731.073 242.789 730.977C243.204 730.593 243.567 730.2 243.877 729.8C244.809 728.604 245.276 727.35 245.276 726.035C245.276 724.283 244.447 722.636 242.789 721.092C241.131 719.547 238.894 718.21 236.076 717.08C233.258 715.953 229.998 715.052 226.296 714.383C222.595 713.715 218.699 713.38 214.611 713.38C210.411 713.38 206.461 713.715 202.759 714.383C199.056 715.052 195.797 715.953 192.979 717.08C190.161 718.21 187.951 719.547 186.349 721.092C184.746 722.636 183.945 724.283 183.945 726.035C183.945 727.35 184.395 728.604 185.297 729.8C185.562 730.151 185.881 730.496 186.224 730.839Z" fill="#A2DBF4"/>
<path d="M237.825 774.434C235.973 775.116 233.894 775.688 231.697 776.202H231.696C230.186 776.553 228.652 776.892 226.981 777.167C222.877 777.835 218.558 778.169 214.025 778.169C209.369 778.169 204.988 777.835 200.884 777.167C198.984 776.857 197.213 776.481 195.524 776.07C195.523 776.07 195.523 776.07 195.523 776.07C193.562 775.592 191.717 775.054 190.04 774.434C188.478 773.86 187.084 773.232 185.859 772.558C184.892 772.027 184.116 771.442 183.359 770.848V778.07C183.359 779.822 184.161 781.468 185.763 783.013C187.366 784.557 189.576 785.905 192.393 787.058C195.211 788.209 198.471 789.121 202.173 789.791C205.874 790.459 209.825 790.793 214.025 790.793C218.113 790.793 222.008 790.459 225.711 789.791C229.412 789.121 232.673 788.209 235.49 787.058C238.308 785.905 240.546 784.557 242.203 783.013C243.861 781.468 244.69 779.822 244.69 778.07V770.779C243.894 771.398 243.048 772.006 242.029 772.558C240.789 773.232 239.387 773.86 237.825 774.434Z" fill="#44B6E9"/>
<path d="M676.859 401.161C667.325 401.161 659.595 393.43 659.595 383.898C659.595 374.366 667.325 366.639 676.859 366.639C686.397 366.639 694.126 374.366 694.126 383.898C694.126 393.43 686.397 401.161 676.859 401.161ZM706.322 368.285C697.99 352.023 678.05 345.583 661.773 353.916L571.248 400.268C570.14 400.837 569.065 401.467 568.029 402.152C535.606 423.672 515.103 458.758 511.778 498.408L511.69 499.391C507.146 548.192 466.748 587.327 417.71 590.425C388.643 592.248 360.128 581.548 339.611 561.031C319.091 540.511 308.385 512.045 310.234 482.938C313.426 432.679 353.725 392.212 403.973 388.805C416.713 387.943 429.213 389.388 441.157 393.101C458.612 398.522 477.161 388.777 482.592 371.327C488.019 353.874 478.269 335.33 460.809 329.901C441.03 323.754 420.408 321.355 399.493 322.773C316.231 328.417 249.456 395.466 244.162 478.742C241.111 526.815 258.834 573.864 292.793 607.822C324.248 639.28 366.932 656.813 411.274 656.811C414.803 656.811 418.346 656.7 421.889 656.476C503.131 651.343 570.076 586.446 577.604 505.566L577.745 503.944C579.326 485.14 588.598 468.577 603.273 458.23L691.949 412.825C708.221 404.493 714.657 384.553 706.322 368.285Z" fill="#44B7EA"/>
<path d="M480.511 15.836C490.045 15.836 497.775 23.5637 497.775 33.0955C497.775 42.6274 490.045 50.3579 480.511 50.3579C470.973 50.3579 463.244 42.6274 463.244 33.0955C463.244 23.5637 470.973 15.836 480.511 15.836ZM457.313 282.104C458.36 282.203 459.394 282.25 460.425 282.25C477.319 282.25 491.745 269.378 493.345 252.223L513.469 36.1623C515.163 17.9661 501.782 1.83932 483.581 0.145691C465.363 -1.56174 449.249 11.827 447.552 30.026L427.424 246.087C425.733 264.283 439.115 280.41 457.313 282.104Z" fill="#44B7EA"/>
<path d="M323.632 61.9576C333.17 61.9576 340.899 69.6825 340.899 79.2171C340.899 88.749 333.17 96.4794 323.632 96.4794C314.098 96.4794 306.368 88.749 306.368 79.2171C306.368 69.6825 314.098 61.9576 323.632 61.9576ZM322.795 262.809C325.686 278.803 339.623 290.018 355.328 290.018C357.282 290.018 359.264 289.844 361.256 289.484C379.244 286.232 391.189 269.017 387.936 251.034L356.207 75.6088C352.954 57.6254 335.765 45.6622 317.743 48.9335C299.755 52.1854 287.81 69.3979 291.063 87.3841L322.795 262.809Z" fill="#44B7EA"/>
<path d="M206.142 196.808C196.606 196.808 188.877 189.081 188.877 179.549C188.877 170.014 196.606 162.286 206.142 162.286C215.677 162.286 223.408 170.014 223.408 179.549C223.408 189.081 215.677 196.808 206.142 196.808ZM270.885 327.345C287.634 320.013 295.261 300.498 287.927 283.756L236.463 166.273C229.124 149.53 209.595 141.902 192.863 149.235C176.116 156.567 168.486 176.081 175.82 192.824L227.285 310.307C232.728 322.728 244.874 330.133 257.622 330.133C262.059 330.133 266.564 329.238 270.885 327.345Z" fill="#44B7EA"/>
<path d="M620.167 104.72C629.701 104.72 637.431 112.448 637.431 121.98C637.431 131.512 629.701 139.242 620.167 139.242C610.63 139.242 602.9 131.512 602.9 121.98C602.9 112.448 610.63 104.72 620.167 104.72ZM551.27 316.2C554.926 317.496 558.66 318.109 562.336 318.109C575.955 318.109 588.72 309.639 593.531 296.07L651.365 133.042C657.476 115.816 648.461 96.9013 631.232 90.7926C614.01 84.6812 595.079 93.6908 588.971 110.92L531.137 273.951C525.027 291.174 534.042 310.089 551.27 316.2Z" fill="#44B7EA"/>
</g>
<defs>
<clipPath id="clip0_3419_34229">
<rect width="883" height="967" fill="white"/>
</clipPath>
</defs>
</svg>
