<svg width="47" height="47" viewBox="0 0 47 47" fill="none" xmlns="http://www.w3.org/2000/svg">
<path opacity="0.1" fill-rule="evenodd" clip-rule="evenodd" d="M23.6634 45.7857C35.9291 45.7857 45.8724 35.7601 45.8724 23.3929C45.8724 11.0256 35.9291 1 23.6634 1C11.3977 1 1.45435 11.0256 1.45435 23.3929C1.45435 35.7601 11.3977 45.7857 23.6634 45.7857Z" stroke="#D1DBBD" stroke-width="1.5"/>
<path d="M25.6854 17.6611H27.7266C27.9144 17.6611 28.0668 17.5163 28.0668 17.3379V15.3985C28.0668 15.2201 27.9144 15.0753 27.7266 15.0753H25.6854C23.6224 15.0753 21.9432 16.6701 21.9432 18.6308V20.8933H19.5619C19.3741 20.8933 19.2217 21.0381 19.2217 21.2165V23.1559C19.2217 23.3343 19.3741 23.4791 19.5619 23.4791H21.9432V30.2668C21.9432 30.4452 22.0957 30.59 22.2834 30.59H24.3246C24.5124 30.59 24.6648 30.4452 24.6648 30.2668V23.4791H27.0462C27.1925 23.4791 27.3224 23.3899 27.3694 23.258L28.0498 21.3187C28.0845 21.2204 28.0668 21.1118 28.0028 21.0271C27.9382 20.9431 27.8361 20.8933 27.7266 20.8933H24.6648V18.6308C24.6648 18.0962 25.1227 17.6611 25.6854 17.6611Z" fill="#D1DBBD"/>
</svg>
