<svg width="47" height="47" viewBox="0 0 47 47" fill="none" xmlns="http://www.w3.org/2000/svg">
<path opacity="0.1" fill-rule="evenodd" clip-rule="evenodd" d="M23.209 45.7857C35.4747 45.7857 45.4181 35.7601 45.4181 23.3929C45.4181 11.0256 35.4747 1 23.209 1C10.9433 1 1 11.0256 1 23.3929C1 35.7601 10.9433 45.7857 23.209 45.7857Z" stroke="#D1DBBD" stroke-width="1.5"/>
<path d="M18.1118 18.8722C19.1516 18.8722 19.9945 18.0223 19.9945 16.9738C19.9945 15.9254 19.1516 15.0755 18.1118 15.0755C17.0719 15.0755 16.229 15.9254 16.229 16.9738C16.229 18.0223 17.0719 18.8722 18.1118 18.8722Z" fill="#D1DBBD"/>
<path d="M19.6807 20.1403H16.5428C16.3696 20.1403 16.229 20.282 16.229 20.4566V29.9483C16.229 30.123 16.3696 30.2647 16.5428 30.2647H19.6807C19.8539 30.2647 19.9945 30.123 19.9945 29.9483V20.4566C19.9945 20.282 19.8539 20.1403 19.6807 20.1403Z" fill="#D1DBBD"/>
<path d="M29.0319 19.6139C27.6907 19.1507 26.0132 19.5576 25.0072 20.2872C24.9727 20.1511 24.8497 20.0499 24.7034 20.0499H21.5655C21.3923 20.0499 21.2517 20.1916 21.2517 20.3663V29.8579C21.2517 30.0326 21.3923 30.1743 21.5655 30.1743H24.7034C24.8766 30.1743 25.0172 30.0326 25.0172 29.8579V23.0366C25.5243 22.5962 26.1776 22.4557 26.7123 22.6848C27.2307 22.9056 27.5276 23.4447 27.5276 24.1629V29.8579C27.5276 30.0326 27.6681 30.1743 27.8414 30.1743H30.9793C31.1525 30.1743 31.2931 30.0326 31.2931 29.8579V23.5257C31.2573 20.9256 30.0442 19.9632 29.0319 19.6139Z" fill="#D1DBBD"/>
</svg>
