<svg width="56" height="58" viewBox="0 0 56 58" fill="none" xmlns="http://www.w3.org/2000/svg">
<path d="M20.2946 -1.11684C19.9293 -1.06788 19.5804 -0.947058 19.2728 -0.762949C19.2728 -0.762949 16.0888 1.04281 12.6658 2.99603C9.24281 4.94698 5.43471 7.09756 4.56385 7.53312C4.51014 7.55414 4.45725 7.57684 4.40529 7.60118C1.24403 9.3593 0.587114 12.2313 0.473853 13.842C0.466302 13.9168 0.473853 13.9781 0.473853 14.0575C0.446167 14.6609 0.473853 15.0488 0.473853 15.0488V44.6828C0.473853 48.9885 6.04381 51.0597 11.3293 51.0597C13.0912 51.0597 14.853 50.8034 16.3632 50.3497C17.37 49.896 18.0923 48.9885 18.0923 48.0811V24.2614C18.0923 19.0437 19.3508 16.5937 23.1262 14.552C24.1329 14.0983 34.6889 7.53086 34.6889 7.53086C35.1923 7.07715 35.7108 6.15612 35.7108 5.47555V5.26231C35.7108 4.35489 35.2074 3.66072 34.4523 3.20701C33.6972 2.7533 32.6905 2.7533 31.9354 3.20701C31.6837 3.43386 16.3305 12.7508 13.0585 14.3388C9.78647 16.1536 6.73344 16.5914 5.97836 15.684C5.74429 15.473 5.54042 14.8265 5.5077 14.1958V14.0529C5.51022 13.4359 5.6864 12.2744 7.08078 11.5008C8.49529 10.7908 12.0064 8.76948 15.4193 6.82307C16.8615 5.99959 17.0402 5.91111 18.1703 5.26231C18.3191 5.8165 18.694 6.29988 19.2203 6.61622C19.7466 6.93256 20.3858 7.05866 21.0106 6.96943C21.6354 6.88019 22.2 6.58216 22.5921 6.13467C22.9841 5.68717 23.1748 5.12302 23.1262 4.55452V1.1517C23.129 0.828357 23.0551 0.508203 22.9094 0.212706C22.7637 -0.082791 22.5496 -0.346803 22.2815 -0.56163C22.0133 -0.776457 21.6973 -0.937135 21.3547 -1.03289C21.012 -1.12865 20.6506 -1.15727 20.2946 -1.11684ZM40.43 6.82307C40.0298 6.88307 39.6516 7.02938 39.3276 7.24956C39.3276 7.24956 26.6574 14.9331 24.4626 16.2511C24.436 16.2748 24.41 16.299 24.3846 16.3237C22.5624 17.5556 21.4826 19.021 21.0019 20.3618C20.7325 21.1181 20.5999 21.9086 20.6092 22.7029V23.4129C20.6056 23.4832 20.6056 23.5536 20.6092 23.6239V51.0597C20.6092 55.37 26.1163 57.8654 31.1501 57.8654C33.4153 57.8654 35.4591 57.4253 36.9692 56.5178C39.9895 54.9299 54.5877 44.6806 54.5877 44.6806C55.3428 44.2269 55.8462 43.5871 55.8462 42.9066V13.4155C55.8462 12.2812 55.3579 11.6006 54.3511 11.1469C53.596 10.6932 52.3552 10.9065 51.6001 11.3602C47.573 14.0824 36.7327 21.7682 34.2157 23.1294C30.692 24.9442 27.3722 25.3979 26.1138 24.2637C25.6104 23.8099 25.6431 23.3835 25.6431 22.7029C25.6582 22.3127 25.706 21.977 25.8016 21.7093C25.9426 21.3145 26.2295 20.8291 27.2942 20.0805C27.3445 20.0442 27.3194 20.0464 27.3722 20.0101C29.1919 18.9144 34.7569 15.4957 38.3863 13.2725C38.5919 13.7697 38.9844 14.1862 39.4954 14.4496C40.0065 14.713 40.6039 14.8065 41.1835 14.714C41.7632 14.6215 42.2886 14.3487 42.6683 13.9432C43.0479 13.5377 43.2579 13.025 43.2615 12.4944V9.09162C43.2644 8.76827 43.1905 8.44812 43.0448 8.15262C42.8991 7.85712 42.685 7.59311 42.4169 7.37828C42.1487 7.16346 41.8327 7.00278 41.49 6.90702C41.1474 6.81126 40.786 6.78264 40.43 6.82307ZM50.8123 23.4129V27.95L38.2277 36.7384V32.2013L50.8123 23.4129Z" fill="white"/>
</svg>
