<svg width="47" height="47" viewBox="0 0 47 47" fill="none" xmlns="http://www.w3.org/2000/svg">
<path opacity="0.1" fill-rule="evenodd" clip-rule="evenodd" d="M23.1177 45.7857C35.3834 45.7857 45.3268 35.7601 45.3268 23.3929C45.3268 11.0256 35.3834 1 23.1177 1C10.852 1 0.908691 11.0256 0.908691 23.3929C0.908691 35.7601 10.852 45.7857 23.1177 45.7857Z" stroke="#D1DBBD" stroke-width="1.5"/>
<path d="M30.3772 19.253C30.2741 19.1355 30.1079 19.106 29.9716 19.1784C29.8869 19.2234 29.7275 19.2825 29.5383 19.3409C29.777 19.0118 29.9689 18.6432 30.0537 18.312C30.0903 18.1692 30.0367 18.0187 29.9201 17.9336C29.8035 17.8492 29.6482 17.8492 29.5315 17.9336C29.3478 18.0666 28.4608 18.466 27.9 18.5954C26.6326 17.4442 25.1576 17.3246 23.6244 18.2529C22.378 19.0075 22.1067 20.5421 22.1596 21.4774C19.3068 21.1926 17.5335 19.6299 16.5353 18.3366C16.4654 18.2459 16.3528 18.1981 16.2471 18.2051C16.1358 18.2135 16.0355 18.2775 15.9785 18.3767C15.5065 19.203 15.3757 20.1166 15.6015 21.0189C15.7249 21.5112 15.9405 21.9451 16.1908 22.2967C16.0707 22.2356 15.9548 22.1589 15.8456 22.0675C15.7452 21.9817 15.6049 21.9655 15.4862 22.0225C15.3682 22.0808 15.2929 22.2046 15.2929 22.3404C15.2929 23.8897 16.2274 24.9235 17.1001 25.4636C16.9591 25.446 16.8119 25.4137 16.6634 25.3665C16.5359 25.3265 16.3976 25.3665 16.3094 25.4706C16.2213 25.574 16.2003 25.7217 16.2552 25.8476C16.7455 26.9721 17.6745 27.7457 18.8239 28.0263C17.8203 28.6375 16.4769 28.9371 15.2468 28.7901C15.0875 28.7669 14.9356 28.8717 14.8854 29.0306C14.8352 29.1895 14.901 29.3639 15.0414 29.4455C16.9076 30.5321 18.5947 30.9203 20.0527 30.9203C22.1746 30.9203 23.8122 30.0989 24.8091 29.4118C27.4965 27.5622 29.1715 24.2413 28.9382 21.27C29.3688 20.9401 30.013 20.3311 30.4124 19.6763C30.4952 19.5441 30.4802 19.3697 30.3772 19.253Z" fill="#D1DBBD"/>
</svg>
